{"accessors":[{"bufferView":0,"componentType":5125,"count":354777,"type":"SCALAR"},{"bufferView":1,"componentType":5126,"count":354777,"max":[7.84790420532227,4.30119371414185,15.8129081726074],"min":[-24.1486015319824,-1.4011777639389,-5.56865119934082],"type":"VEC3"},{"bufferView":2,"componentType":5126,"count":354777,"type":"VEC2"}],"asset":{"generator":"ply_to_gltf","version":"2.0"},"bufferViews":[{"buffer":0,"byteLength":1419108,"target":34963},{"buffer":0,"byteLength":4257324,"byteOffset":1419108,"target":34962},{"buffer":0,"byteLength":2838216,"byteOffset":5676432,"target":34962}],"buffers":[{"byteLength":8514648,"uri":"map_1688256132_densified_mesh_textured_lod0.bin"}],"images":[{"uri":"map_1688256132_densified_mesh_textured_4096.jpg"}],"materials":[{"pbrMetallicRoughness":{"baseColorTexture":{"index":0}}}],"meshes":[{"primitives":[{"attributes":{"POSITION":1,"TEXCOORD_0":2},"indices":0,"material":0,"mode":4}]}],"nodes":[{"mesh":0}],"samplers":[{"magFilter":9728,"minFilter":9728,"wrapR":10497,"wrapS":33071,"wrapT":33071}],"scene":0,"scenes":[{"nodes":[0]}],"textures":[{"sampler":0,"source":0}]}
